<svg width="144" height="144" viewBox="0 0 144 144" fill="none" xmlns="http://www.w3.org/2000/svg">
<g filter="url(#filter0_d_1737_177)">
<rect x="12" y="4" width="120" height="120" rx="16" fill="#E0F0FF"/>
</g>
<path d="M41.3123 56.521C41.5566 56.6205 41.8151 56.67 42.0735 56.67C42.341 56.67 42.6084 56.6168 42.8595 56.5105L48.9061 53.9589C49.9342 53.5246 50.4164 52.3391 49.9821 51.3104C49.5483 50.2818 48.3623 49.8001 47.3336 50.2339L45.8549 50.8582C50.4438 40.4118 60.827 33.543 72.38 33.543C85.5891 33.543 97.1242 42.4749 100.431 55.2634C100.667 56.1746 101.487 56.7795 102.387 56.7795C102.554 56.7795 102.725 56.7585 102.894 56.7148C103.975 56.4352 104.625 55.3324 104.345 54.2516C100.577 39.678 87.4322 29.5 72.38 29.5C59.1409 29.5 47.251 37.4164 42.0667 49.4332L41.3844 47.816C40.9501 46.7879 39.7646 46.3057 38.736 46.7395C37.7073 47.1738 37.2257 48.3598 37.6594 49.3879L40.211 55.4345C40.4195 55.9283 40.8154 56.3194 41.3123 56.521V56.521Z" fill="#00539E"/>
<path d="M106.341 78.201L103.789 72.155C103.58 71.6606 103.184 71.27 102.688 71.0679C102.191 70.8663 101.634 70.8699 101.14 71.0784L95.0939 73.6305C94.0658 74.0643 93.5836 75.2503 94.0179 76.279C94.4517 77.3076 95.6377 77.7893 96.6664 77.355L98.3588 76.6406C93.8847 87.3671 83.3562 94.456 71.6205 94.456C58.4108 94.456 46.8757 85.5241 43.5687 72.7356C43.2892 71.6543 42.1863 71.0058 41.1056 71.2842C40.0248 71.5638 39.3752 72.6666 39.6547 73.7474C43.4229 88.321 56.5678 98.499 71.6205 98.499C84.9339 98.499 96.8833 90.4931 102.02 78.3621L102.616 79.7729C102.941 80.5452 103.69 81.0089 104.479 81.0089C104.741 81.0089 105.008 80.9579 105.264 80.8494C106.293 80.4151 106.774 79.2296 106.341 78.201V78.201Z" fill="#00539E"/>
<path d="M67.9464 86.2506C68.1701 86.3316 68.4017 86.3701 68.6307 86.3701C69.2219 86.3701 69.7973 86.1105 70.189 85.6367L87.1231 65.1529C87.6222 64.5491 87.7274 63.7121 87.3942 63.0035C87.0605 62.2954 86.3482 61.8432 85.5654 61.8432H78.1991V43.5156C78.1991 42.6628 77.6642 41.9021 76.862 41.6131C76.0602 41.3247 75.1632 41.5705 74.6194 42.2275L57.6852 62.7113C57.1862 63.3146 57.0809 64.1522 57.4141 64.8602C57.7479 65.5688 58.4607 66.021 59.2435 66.021H66.6098V84.3486C66.6092 85.2014 67.1441 85.9621 67.9464 86.2506V86.2506Z" fill="#00539E"/>
<defs>
<filter id="filter0_d_1737_177" x="0" y="0" width="144" height="144" filterUnits="userSpaceOnUse" color-interpolation-filters="sRGB">
<feFlood flood-opacity="0" result="BackgroundImageFix"/>
<feColorMatrix in="SourceAlpha" type="matrix" values="0 0 0 0 0 0 0 0 0 0 0 0 0 0 0 0 0 0 127 0" result="hardAlpha"/>
<feMorphology radius="4" operator="erode" in="SourceAlpha" result="effect1_dropShadow_1737_177"/>
<feOffset dy="8"/>
<feGaussianBlur stdDeviation="8"/>
<feComposite in2="hardAlpha" operator="out"/>
<feColorMatrix type="matrix" values="0 0 0 0 0.0823529 0 0 0 0 0.0823529 0 0 0 0 0.0823529 0 0 0 0.1 0"/>
<feBlend mode="normal" in2="BackgroundImageFix" result="effect1_dropShadow_1737_177"/>
<feBlend mode="normal" in="SourceGraphic" in2="effect1_dropShadow_1737_177" result="shape"/>
</filter>
</defs>
</svg>
